<?xml version="1.0" encoding="utf-8"?>
<!DOCTYPE svg PUBLIC "-//W3C//DTD SVG 1.1//EN" "http://www.w3.org/Graphics/SVG/1.1/DTD/svg11.dtd">
<svg version="1.1" xmlns="http://www.w3.org/2000/svg" xmlns:xlink="http://www.w3.org/1999/xlink" 
	 width="829.184px" height="153.788px" viewBox="0 0 829.184 153.788">
<g id="logo">
	<path d="M81.731,1.101L5.938,76.894l75.793,75.793l75.793-75.793L81.731,1.101z M55.971,97.647
		c-11.474,0-20.367-9.279-20.367-20.753c0-11.474,8.893-20.797,20.367-20.797c8.09,0,15.083,4.634,18.514,11.383
		c-0.514,0.747-1.049,1.503-1.628,2.279c-0.092,0.123-0.179,0.239-0.27,0.36c-2.669-6.559-9.098-11.188-16.616-11.188
		c-9.909,0-17.268,8.033-17.268,17.941c0,9.909,7.359,17.941,17.268,17.941c7.495,0,13.909-4.599,16.593-11.126
		c0.685,0.93,1.316,1.806,1.895,2.63C71.018,93.038,64.04,97.647,55.971,97.647z M79.614,80.277
		c-1.017,1.361-1.832,2.58-2.445,3.656c-0.202-0.389-0.479-0.841-0.83-1.357c-0.606-0.897-1.357-1.94-2.254-3.129
		c-0.195-0.262-0.879-1.114-2.053-2.557c0.755-0.86,1.727-2.086,2.916-3.679c0.882-1.181,1.619-2.299,2.21-3.354
		c0.665,1.129,1.484,2.341,2.456,3.634c1.122,1.496,2.026,2.628,2.714,3.398C81.774,77.472,80.87,78.602,79.614,80.277z
		 M119.86,97.315V62.422L103.963,85.55h-0.23L87.837,62.422v34.893h-2.87V57.143h2.812l16.126,23.759l16.127-23.759h2.812v40.172
		H119.86z"/>
</g>
<g id="type">
	<g>
		<g>
			<path d="M175.449,77.012v-0.118c0-11.671,8.724-21.338,20.63-21.338c7.368,0,11.789,2.712,16.033,6.602l-2.181,2.24
				c-3.595-3.478-7.722-6.072-13.911-6.072c-9.903,0-17.388,8.075-17.388,18.45v0.118c0,10.433,7.604,18.568,17.447,18.568
				c5.954,0,10.021-2.299,14.206-6.426l2.063,2.004c-4.362,4.303-9.078,7.192-16.387,7.192
				C184.173,98.232,175.449,88.859,175.449,77.012z"/>
			<path d="M220.184,56.264h3.065v19.098h26.407V56.264h3.065v41.261h-3.065V78.19h-26.407v19.334h-3.065V56.264z"/>
			<path d="M265.389,56.264h3.065v41.261h-3.065V56.264z"/>
			<path d="M281.125,56.264h2.888l28.47,35.897V56.264h2.947v41.261h-2.299l-29.06-36.663v36.663h-2.947V56.264z"/>
			<path d="M323.502,77.012v-0.118c0-11.671,8.724-21.338,20.631-21.338c7.367,0,11.789,2.712,16.032,6.602l-2.181,2.24
				c-3.596-3.478-7.722-6.072-13.911-6.072c-9.903,0-17.388,8.075-17.388,18.45v0.118c0,10.433,7.604,18.568,17.448,18.568
				c5.953,0,10.02-2.299,14.206-6.426l2.062,2.004c-4.362,4.303-9.077,7.192-16.386,7.192
				C332.226,98.232,323.502,88.859,323.502,77.012z"/>
			<path d="M368.237,56.264h3.066v19.098h26.407V56.264h3.065v41.261h-3.065V78.19h-26.407v19.334h-3.066V56.264z"/>
			<path d="M428.12,55.969h2.947l19.216,41.555h-3.36l-5.246-11.553h-24.345l-5.246,11.553h-3.183L428.12,55.969z M440.38,83.201
				l-10.846-23.873l-10.905,23.873H440.38z"/>
			<path d="M459.002,56.264h17.33c5.069,0,9.137,1.592,11.612,4.067c1.945,1.945,3.124,4.716,3.124,7.663v0.118
				c0,6.897-5.128,10.846-12.084,11.789l13.616,17.624h-3.89L475.566,80.43h-0.118h-13.38v17.094h-3.066V56.264z M475.979,77.66
				c6.897,0,12.025-3.478,12.025-9.431v-0.118c0-5.541-4.362-9.019-11.848-9.019h-14.087V77.66H475.979z"/>
			<path d="M524.601,56.264h2.888l16.564,24.403l16.563-24.403h2.888v41.261h-3.065V61.687l-16.328,23.755h-0.235l-16.328-23.755
				v35.838h-2.947V56.264z"/>
			<path d="M590.85,55.969h2.947l19.216,41.555h-3.36l-5.246-11.553h-24.345l-5.246,11.553h-3.183L590.85,55.969z M603.11,83.201
				l-10.846-23.873l-10.905,23.873H603.11z"/>
			<path d="M621.732,56.264h3.066v38.431h24.225v2.829h-27.291V56.264z"/>
			<path d="M653.441,77.012v-0.118c0-11.258,8.311-21.338,20.807-21.338s20.69,9.962,20.69,21.22c0.058,0.058,0.058,0.058,0,0.118
				c0,11.258-8.312,21.338-20.808,21.338C661.634,98.232,653.441,88.27,653.441,77.012z M691.754,77.012v-0.118
				c0-10.197-7.427-18.567-17.625-18.567c-10.197,0-17.506,8.252-17.506,18.45v0.118c0,10.197,7.427,18.568,17.625,18.568
				S691.754,87.209,691.754,77.012z"/>
			<path d="M704.186,56.264h2.888l28.47,35.897V56.264h2.947v41.261h-2.299l-29.06-36.663v36.663h-2.947V56.264z"/>
			<path d="M749.57,56.264h29.354v2.829h-26.289v16.209h23.636v2.83h-23.636v16.563h26.584v2.829H749.57V56.264z"/>
			<path d="M802.498,81.197l-17.684-24.933h3.832l15.444,22.163l15.502-22.163h3.654l-17.683,24.874v16.386h-3.065V81.197z"/>
		</g>
		<g>
			<path d="M507.409,72.896c0.55,0.934,1.228,1.936,2.032,3.006c0.928,1.237,1.676,2.174,2.245,2.811
				c-0.458,0.482-1.206,1.416-2.245,2.801c-0.841,1.126-1.515,2.134-2.022,3.024c-0.167-0.321-0.396-0.696-0.686-1.122
				c-0.501-0.742-1.122-1.605-1.865-2.588c-0.161-0.216-0.727-0.921-1.698-2.115c0.625-0.711,1.429-1.725,2.412-3.043
				C506.311,74.693,506.92,73.768,507.409,72.896z"/>
		</g>
	</g>
</g>
</svg>
