<?xml version="1.0" encoding="utf-8"?>
<!-- Generator: Adobe Illustrator 17.0.0, SVG Export Plug-In . SVG Version: 6.00 Build 0)  -->
<!DOCTYPE svg PUBLIC "-//W3C//DTD SVG 1.1//EN" "http://www.w3.org/Graphics/SVG/1.1/DTD/svg11.dtd">
<svg version="1.1" id="Layer_1" xmlns="http://www.w3.org/2000/svg" xmlns:xlink="http://www.w3.org/1999/xlink" x="0px" y="0px"
	 width="810px" height="255px" viewBox="0 0 810 255" enable-background="new 0 0 810 255" xml:space="preserve">
<rect x="350.625" y="27.364" transform="matrix(-0.7071 -0.7071 0.7071 -0.7071 633.5771 425.9079)" width="108.744" height="108.744"/>
<g>
	<path fill="#FFFFFF" d="M395.7,88.631c-2.723,6.622-9.23,11.288-16.834,11.288c-10.053,0-17.519-8.149-17.519-18.202
		s7.466-18.202,17.519-18.202c7.627,0,14.149,4.696,16.857,11.351c0.092-0.123,0.181-0.24,0.274-0.365
		c0.587-0.787,1.13-1.554,1.651-2.312c-3.481-6.847-10.575-11.549-18.783-11.549c-11.64,0-20.663,9.459-20.663,21.1
		c0,11.64,9.023,21.054,20.663,21.054c8.186,0,15.266-4.676,18.757-11.495C397.035,90.463,396.395,89.575,395.7,88.631z"/>
	<g>
		<path fill="#FFFFFF" d="M400.36,74.599c0.675,1.146,1.506,2.375,2.492,3.687c1.138,1.517,2.056,2.667,2.754,3.448
			c-0.562,0.592-1.479,1.737-2.754,3.437c-1.032,1.381-1.859,2.617-2.481,3.71c-0.205-0.394-0.486-0.853-0.842-1.377
			c-0.615-0.91-1.377-1.969-2.287-3.175c-0.197-0.265-0.892-1.13-2.082-2.594c0.766-0.872,1.752-2.117,2.959-3.732
			C399.013,76.803,399.76,75.669,400.36,74.599z"/>
	</g>
	<path fill="#FFFFFF" d="M408.284,61.701h2.853l16.36,24.104l16.361-24.104h2.853v40.756h-3.027v-35.4l-16.128,23.464h-0.233
		l-16.127-23.464v35.4h-2.911L408.284,61.701L408.284,61.701z"/>
</g>
<g>
	<g enable-background="new    ">
		<path d="M10.805,213.001v-0.144c0-14.257,10.657-26.066,25.202-26.066c9.001,0,14.401,3.312,19.586,8.064l-2.665,2.736
			c-4.392-4.248-9.433-7.416-16.993-7.416c-12.097,0-21.242,9.864-21.242,22.538v0.144c0,12.745,9.289,22.682,21.313,22.682
			c7.273,0,12.241-2.808,17.354-7.849l2.521,2.448c-5.329,5.257-11.089,8.785-20.018,8.785
			C21.462,238.924,10.805,227.475,10.805,213.001z"/>
	</g>
	<g enable-background="new    ">
		<path d="M65.453,187.655h3.744v23.33h32.259v-23.33h3.745v50.404h-3.745v-23.618H69.197v23.618h-3.744V187.655z"/>
		<path d="M120.676,187.655h3.744v50.404h-3.744V187.655z"/>
	</g>
	<g enable-background="new    ">
		<path d="M139.899,187.655h3.528l34.779,43.852v-43.852h3.601v50.404h-2.809l-35.499-44.788v44.788h-3.6V187.655z"/>
	</g>
	<g enable-background="new    ">
		<path d="M191.666,213.001v-0.144c0-14.257,10.657-26.066,25.202-26.066c9.001,0,14.401,3.312,19.586,8.064l-2.665,2.736
			c-4.392-4.248-9.433-7.416-16.993-7.416c-12.097,0-21.242,9.864-21.242,22.538v0.144c0,12.745,9.289,22.682,21.313,22.682
			c7.273,0,12.241-2.808,17.354-7.849l2.521,2.448c-5.329,5.257-11.089,8.785-20.018,8.785
			C202.323,238.924,191.666,227.475,191.666,213.001z"/>
		<path d="M247.033,187.655h3.744v23.33h32.259v-23.33h3.744v50.404h-3.744v-23.618h-32.259v23.618h-3.744V187.655z"/>
	</g>
	<g enable-background="new    ">
		<path d="M319.466,187.295h3.601l23.474,50.765h-4.104l-6.409-14.113H306.29l-6.409,14.113h-3.888L319.466,187.295z
			 M334.444,220.562l-13.249-29.163l-13.321,29.163H334.444z"/>
	</g>
	<g enable-background="new    ">
		<path d="M357.193,187.655h21.17c6.192,0,11.161,1.944,14.185,4.969c2.376,2.376,3.816,5.76,3.816,9.36v0.145
			c0,8.424-6.265,13.249-14.761,14.4l16.633,21.53h-4.752l-16.058-20.882h-0.144h-16.346v20.882h-3.744V187.655z M377.931,213.794
			c8.425,0,14.689-4.249,14.689-11.521v-0.144c0-6.769-5.328-11.018-14.473-11.018h-17.209v22.683H377.931z"/>
	</g>
	<g enable-background="new    ">
		<path d="M437.328,187.655h3.528l20.233,29.811l20.233-29.811h3.528v50.404h-3.744V194.28l-19.945,29.018h-0.288l-19.946-29.018
			v43.779h-3.6V187.655z"/>
	</g>
	<g enable-background="new    ">
		<path d="M518.256,187.295h3.601l23.475,50.765h-4.104l-6.409-14.113h-29.738l-6.408,14.113h-3.889L518.256,187.295z
			 M533.233,220.562l-13.249-29.163l-13.321,29.163H533.233z"/>
	</g>
	<g enable-background="new    ">
		<path d="M555.982,187.655h3.744v46.948h29.595v3.456h-33.339V187.655z"/>
	</g>
	<g enable-background="new    ">
		<path d="M594.718,213.001v-0.144c0-13.753,10.152-26.066,25.418-26.066s25.274,12.169,25.274,25.923
			c0.072,0.071,0.072,0.071,0,0.144c0,13.753-10.153,26.066-25.418,26.066C604.727,238.924,594.718,226.755,594.718,213.001z
			 M641.521,213.001v-0.144c0-12.457-9.072-22.682-21.529-22.682s-21.386,10.08-21.386,22.538v0.144
			c0,12.457,9.072,22.682,21.529,22.682S641.521,225.458,641.521,213.001z"/>
		<path d="M657.213,187.655h3.528l34.779,43.852v-43.852h3.601v50.404h-2.809l-35.499-44.788v44.788h-3.601V187.655z"/>
	</g>
	<g enable-background="new    ">
		<path d="M712.148,187.655h35.859v3.456h-32.115v19.802h28.875v3.456h-28.875v20.234h32.476v3.456h-36.22V187.655z"/>
		<path d="M776.806,218.114l-21.602-30.459h4.68l18.866,27.074l18.938-27.074h4.465l-21.603,30.387v20.018h-3.744V218.114z"/>
	</g>
	<g>
		<path d="M416.326,207.974c0.672,1.141,1.5,2.365,2.482,3.672c1.133,1.511,2.047,2.656,2.742,3.434
			c-0.559,0.589-1.473,1.73-2.742,3.422c-1.027,1.375-1.851,2.606-2.47,3.694c-0.204-0.393-0.484-0.85-0.839-1.371
			c-0.612-0.907-1.371-1.96-2.278-3.162c-0.197-0.264-0.888-1.126-2.074-2.584c0.763-0.869,1.745-2.108,2.946-3.717
			C414.985,210.168,415.729,209.039,416.326,207.974z"/>
	</g>
</g>
</svg>
