<?xml version="1.0" encoding="utf-8"?>
<!-- Generator: Adobe Illustrator 17.0.0, SVG Export Plug-In . SVG Version: 6.00 Build 0)  -->
<!DOCTYPE svg PUBLIC "-//W3C//DTD SVG 1.1//EN" "http://www.w3.org/Graphics/SVG/1.1/DTD/svg11.dtd">
<svg version="1.1" id="Layer_1" xmlns="http://www.w3.org/2000/svg" xmlns:xlink="http://www.w3.org/1999/xlink" x="0px" y="0px"
	 width="810px" height="255px" viewBox="0 0 810 255" enable-background="new 0 0 810 255" xml:space="preserve">
<rect x="350.627" y="27.367" transform="matrix(0.7071 0.7071 -0.7071 0.7071 176.4198 -262.4373)" width="108.745" height="108.745"/>
<g>
	<path fill="#FFFFFF" d="M395.7,88.631c-2.723,6.622-9.23,11.288-16.834,11.288c-10.053,0-17.519-8.149-17.519-18.202
		c0-10.053,7.466-18.202,17.519-18.202c7.627,0,14.149,4.696,16.857,11.351c0.092-0.123,0.181-0.24,0.274-0.365
		c0.587-0.787,1.13-1.554,1.651-2.312c-3.481-6.847-10.575-11.549-18.783-11.549c-11.64,0-20.663,9.459-20.663,21.1
		c0,11.64,9.023,21.054,20.663,21.054c8.186,0,15.266-4.676,18.757-11.495C397.035,90.463,396.395,89.575,395.7,88.631z"/>
	<g>
		<path fill="#FFFFFF" d="M400.36,74.599c0.675,1.146,1.506,2.375,2.492,3.687c1.138,1.517,2.056,2.667,2.754,3.448
			c-0.562,0.592-1.479,1.737-2.754,3.437c-1.032,1.381-1.859,2.617-2.481,3.71c-0.205-0.394-0.486-0.853-0.842-1.377
			c-0.615-0.91-1.377-1.969-2.287-3.175c-0.197-0.265-0.892-1.13-2.082-2.594c0.766-0.872,1.752-2.117,2.959-3.732
			C399.013,76.803,399.76,75.669,400.36,74.599z"/>
	</g>
	<path fill="#FFFFFF" d="M408.284,61.701h2.853l16.36,24.104l16.361-24.104h2.853v40.756h-3.027v-35.4l-16.128,23.464h-0.233
		l-16.127-23.464v35.4h-2.911V61.701z"/>
</g>
<g>
	<text transform="matrix(1 0 0 1 5.5481 238.0598)"><tspan x="0" y="0" font-family="'Gotham-Light'" font-size="72">C</tspan><tspan x="52.416" y="0" font-family="'Gotham-Light'" font-size="72">HI</tspan><tspan x="126.862" y="0" font-family="'Gotham-Light'" font-size="72" letter-spacing="-2">N</tspan><tspan x="180.861" y="0" font-family="'Gotham-Light'" font-size="72">CH</tspan><tspan x="287.276" y="0" font-family="'Gotham-Light'" font-size="72">A</tspan><tspan x="344.156" y="0" font-family="'Gotham-Light'" font-size="72" letter-spacing="6">R</tspan><tspan x="402.691" y="-12" font-family="'Gotham-Light'" font-size="36">  </tspan><tspan x="424.291" y="0" font-family="'Gotham-Light'" font-size="72">M</tspan><tspan x="486.066" y="0" font-family="'Gotham-Light'" font-size="72">A</tspan><tspan x="542.946" y="0" font-family="'Gotham-Light'" font-size="72" letter-spacing="-3">L</tspan><tspan x="583.913" y="0" font-family="'Gotham-Light'" font-size="72" letter-spacing="-1">ON</tspan><tspan x="699.112" y="0" font-family="'Gotham-Light'" font-size="72">EY</tspan></text>
	<g>
		<path d="M416.326,207.974c0.672,1.141,1.5,2.365,2.482,3.672c1.133,1.511,2.047,2.656,2.742,3.434
			c-0.559,0.589-1.473,1.73-2.742,3.422c-1.027,1.375-1.851,2.606-2.47,3.694c-0.204-0.393-0.484-0.85-0.839-1.371
			c-0.612-0.907-1.371-1.96-2.278-3.162c-0.197-0.264-0.888-1.126-2.074-2.584c0.763-0.869,1.745-2.108,2.946-3.717
			C414.985,210.168,415.729,209.039,416.326,207.974z"/>
	</g>
</g>
</svg>
